<svg width="74" height="74" viewBox="0 0 74 74" fill="none" xmlns="http://www.w3.org/2000/svg">
<g clip-path="url(#clip0_227_3904)">
<path d="M37.5075 0.00343767C17.1156 -0.277594 0.46818 16.7088 0.743603 37.5158C1.01554 57.4708 16.9396 73.719 36.4964 73.9965C56.8917 74.2811 73.5357 57.2947 73.2568 36.4877C72.9883 16.5291 57.0643 0.280912 37.5075 0.00343767ZM59.5449 58.2107C59.4754 58.2873 59.3903 58.3474 59.2956 58.3867C59.2008 58.426 59.0988 58.4436 58.9966 58.4382C58.8945 58.4327 58.7948 58.4044 58.7045 58.3553C58.6143 58.3062 58.5358 58.2374 58.4745 58.1538C56.9153 56.0723 55.0059 54.2902 52.8353 52.8907C48.3972 49.9843 42.7736 48.3835 37.0019 48.3835C31.2302 48.3835 25.6067 49.9843 21.1685 52.8907C18.9981 54.2896 17.0886 56.0711 15.5293 58.152C15.4681 58.2356 15.3895 58.3044 15.2993 58.3535C15.2091 58.4027 15.1094 58.431 15.0072 58.4364C14.9051 58.4418 14.803 58.4243 14.7083 58.385C14.6136 58.3456 14.5285 58.2855 14.459 58.2089C9.34393 52.5747 6.44644 45.2127 6.32181 37.5336C6.03767 20.2252 19.957 5.7379 36.927 5.69521C53.8969 5.65252 67.6821 19.713 67.6821 37C67.6879 44.8642 64.7814 52.4403 59.5449 58.2107Z" fill="#B9C6BF"/>
<path d="M59.5449 58.2107C59.4754 58.2873 59.3903 58.3474 59.2956 58.3867C59.2008 58.426 59.0988 58.4436 58.9966 58.4382C58.8945 58.4327 58.7948 58.4044 58.7045 58.3553C58.6143 58.3062 58.5358 58.2374 58.4745 58.1538C56.9153 56.0723 55.0059 54.2902 52.8353 52.8907C48.3972 49.9843 42.7736 48.3835 37.0019 48.3835C31.2302 48.3835 25.6067 49.9843 21.1685 52.8907C18.9981 54.2896 17.0886 56.0711 15.5293 58.152C15.4681 58.2356 15.3895 58.3044 15.2993 58.3535C15.2091 58.4027 15.1094 58.431 15.0072 58.4364C14.9051 58.4418 14.803 58.4243 14.7083 58.385C14.6136 58.3456 14.5285 58.2855 14.459 58.2089C9.34393 52.5747 6.44644 45.2127 6.32181 37.5336C6.03767 20.2252 19.957 5.7379 36.927 5.69521C53.8969 5.65252 67.6821 19.713 67.6821 37C67.6879 44.8642 64.7814 52.4403 59.5449 58.2107Z" fill="#F5F8F7"/>
<path d="M37.1058 19.24C33.8916 19.24 30.9856 20.4932 28.9205 22.7707C26.8555 25.0482 25.8237 28.1974 26.0568 31.5772C26.5295 38.2333 31.4859 43.66 37.1058 43.66C42.7256 43.66 47.6723 38.2333 48.1547 31.5789C48.396 28.2313 47.3724 25.111 45.2731 22.7911C43.1999 20.5017 40.2987 19.24 37.1058 19.24Z" fill="#B9C6BF"/>
</g>
<defs>
<clipPath id="clip0_227_3904">
<rect width="74" height="74" fill="white"/>
</clipPath>
</defs>
</svg>
