<svg width="80" height="42" viewBox="0 0 80 42" fill="none" xmlns="http://www.w3.org/2000/svg">
<path d="M25.2336 41.5228C19.042 42.2779 13.5808 42.1369 9.44231 41.0996C7.26755 40.5603 5.43362 39.7719 3.9892 38.7596C2.43117 37.6726 1.31945 36.3366 0.670268 34.7683C-1.05006 30.6442 0.556662 25.3751 5.3119 19.525C9.79124 14.0152 16.7293 8.35601 25.3797 3.16151L26.4833 4.86258C20.8679 9.13601 16.5508 13.5256 13.9866 17.5501C12.2338 20.3133 10.4323 24.3046 11.8362 27.6736C12.8586 30.1132 15.3498 31.8474 19.2449 32.8183C23.1562 33.7974 28.3659 33.9219 34.3302 33.2C43.508 32.0798 53.8624 29.0842 64.2817 24.537C69.4265 22.2882 74.344 19.7657 78.8964 17.0356L80 18.7367C73.1998 23.9229 64.8011 28.7606 55.7288 32.7187C50.3974 35.0421 45.0255 36.9921 39.7671 38.4941C34.671 39.9462 29.7779 40.9669 25.2336 41.5228Z" fill="white"/>
<path d="M79.4092 17.907C72.893 22.8691 64.6566 27.6985 55.3408 31.7645C29.7226 42.9501 5.65426 44.1118 1.58877 34.3701C-1.6409 26.6364 8.68917 14.3638 25.8843 4.04114C14.475 12.7374 8.34024 21.8651 10.9288 28.0719C14.9943 37.8137 39.0627 36.652 64.689 25.4747C69.9798 23.1513 74.9298 20.5955 79.4092 17.907Z" fill="#009245"/>
<path d="M31.2076 31.4326C26.5984 31.9968 22.5329 31.8889 19.4493 31.1172C17.8101 30.7106 16.4306 30.1132 15.3351 29.3498C14.1504 28.52 13.2983 27.491 12.7952 26.2878C12.284 25.0597 12.1541 23.6823 12.4057 22.2053C12.641 20.8361 13.2091 19.3674 14.0936 17.8406C15.7652 14.9612 18.6297 11.808 22.3625 8.73773L23.7582 10.1816C20.0417 14.8035 18.719 19.0852 20.0417 22.2468C20.9667 24.4706 23.2145 26.1385 26.5253 27.0761C29.9092 28.0304 34.3317 28.213 39.3223 27.6072C39.8173 27.5491 40.3204 27.4827 40.8154 27.3998L41.2211 29.3913C37.7237 30.3621 34.348 31.0509 31.2076 31.4326Z" fill="white"/>
<path d="M40.9608 28.4121C27.2307 32.2042 16.0242 31.4657 13.6953 25.8895C11.9182 21.641 15.6915 15.5337 22.9704 9.5426C19.1322 14.3139 17.5741 18.9856 19.1078 22.6616C21.4043 28.13 29.9897 30.0551 40.9608 28.4121Z" fill="#009245"/>
<path d="M46.8429 14.3471H42.25V19.3922H46.8429V14.3471Z" fill="#0071BC"/>
<path d="M46.8429 20.6867H42.25V25.0348H46.8429V20.6867Z" fill="#0071BC"/>
<path d="M52.7101 14.347H48.1172V19.3922H52.7101V14.347Z" fill="#0071BC"/>
<path d="M52.7101 20.6867H48.1172V25.0348H52.7101V20.6867Z" fill="#0071BC"/>
<path d="M67.1397 27.4827L48.4433 8.72942L20.3501 27.4827H6.33594L19.6847 18.5708V10.3143H27.8562V13.119L43.753 2.50597L47.5101 0L74.9136 27.4827H67.1397Z" fill="white"/>
<path d="M51.7217 5.47666L47.3965 1.13684L45.8141 2.19898L44.2318 3.25281L28.8056 13.5505L26.9879 14.7703V11.2105H20.561V19.0604L9.27344 26.5866H20.0904L20.561 26.2713L22.3787 25.0598L23.7745 24.1304L25.5922 22.9189L26.9879 21.9812L28.8056 20.7697L48.5488 7.59263L67.4967 26.5866H72.7794L51.7217 5.47666Z" fill="#0071BC"/>
<path d="M27.8532 6.30646H19.6816V11.3516H27.8532V6.30646Z" fill="white"/>
<path d="M26.9237 7.22748H20.5293V10.4305H26.9237V7.22748Z" fill="#0071BC"/>
</svg>
