<svg width="86" height="42" viewBox="0 0 86 42" fill="none" xmlns="http://www.w3.org/2000/svg">
<g clip-path="url(#clip0_513_362)">
<path fill-rule="evenodd" clip-rule="evenodd" d="M36.7238 26.2628L29.5497 33.2457L31.8734 35.5074L39.7787 27.8128L40.0062 27.5914V23.068V22.5618H40.5262H45.1735H46.6522H48.334L47.5053 21.7315L46.7741 21.0039L46.3597 20.5848L45.1085 19.367L31.8734 6.49254L31.134 5.7729L28.8104 3.51118L28.071 2.79154L27.746 2.47522C24.3499 -0.822468 18.8007 -0.822468 15.4127 2.47522L2.54319 14.9938C-0.852938 18.2994 -0.852938 23.7006 2.54319 26.9983L15.4046 39.5168C18.7926 42.8224 24.3499 42.8224 27.7379 39.5168L28.0629 39.2005L25.7392 36.9388L25.4142 37.2551C23.3018 39.3112 19.8326 39.3112 17.7201 37.2551L4.86685 24.7445C2.75443 22.6884 2.75443 19.3116 4.86685 17.2555L17.7283 4.73694C19.8407 2.68083 23.3099 2.68083 25.4224 4.73694L25.7473 5.05326L26.4867 5.7729L28.8104 8.03462L29.5497 8.75426L38.0075 16.9866L40.0062 18.932L40.4531 19.367H40.0062H38.9744H36.7238V24.8236V26.2628Z" fill="#C90016"/>
<path fill-rule="evenodd" clip-rule="evenodd" d="M33.117 21.9292V25.124H29.8346V21.9292H33.117ZM29.8346 17.0657H33.117V20.2606H29.8346V17.0657ZM24.8379 17.0657H28.1203V20.2606H24.8379V17.0657ZM28.1203 25.124H24.8379V21.9292H28.1203V25.124Z" fill="#C90016"/>
<path fill-rule="evenodd" clip-rule="evenodd" d="M12.5093 19.367L10.0881 21.7157L9.21875 22.5618H10.9656H12.4443H17.0916H17.6034V23.06V27.5835L25.7363 35.5074L26.4756 36.2271L28.7993 38.4888L29.5386 39.2084L29.8636 39.5247C33.2598 42.8303 38.8089 42.8303 42.1969 39.5247L55.0583 27.0062C55.2208 26.848 55.3752 26.682 55.5296 26.5159H58.5763V25.1162H60.8594L62.2162 23.7718L63.8411 25.1162H66.5629L68.4722 23.2736L70.3003 25.1162H72.3152L75.8982 22.2139L78.945 25.1162H81.7886L85.981 20.9723L83.5273 18.7185H58.5763V17.817H82.5523L80.6593 16.0772H55.9927C55.7164 15.7055 55.4077 15.3417 55.0665 15.0096L42.1969 2.47522C38.8089 -0.822468 33.2516 -0.822468 29.8636 2.47522L29.5386 2.79154L31.8623 5.05326L32.1873 4.73694C34.2997 2.68083 37.769 2.68083 39.8733 4.73694L52.7347 17.2555C54.8471 19.3116 54.8471 22.6884 52.7347 24.7445L39.8814 37.263C37.769 39.3191 34.2997 39.3191 32.1954 37.263L31.8704 36.9467L31.1311 36.2271L28.8074 33.9653L28.0681 33.2457L20.8777 26.2549V24.8156V22.5697V20.9802L20.8615 19.3749H18.6353H17.5953H17.1566L17.5953 18.9478L19.6102 16.9866L28.0599 8.76217L25.7363 6.50045L12.5093 19.367Z" fill="#414141"/>
</g>
<defs>
<clipPath id="clip0_513_362">
<rect width="86" height="42" fill="white"/>
</clipPath>
</defs>
</svg>
