<svg width="60" height="42" viewBox="0 0 60 42" fill="none" xmlns="http://www.w3.org/2000/svg">
<g clip-path="url(#clip0_513_226)">
<path fill-rule="evenodd" clip-rule="evenodd" d="M16.0508 9.15527e-05H30.5645C38.5501 9.15527e-05 45.0782 6.54989 45.0782 14.5506V17.6377C45.0782 25.6436 38.545 32.1883 30.5645 32.1883H16.0508V9.15527e-05Z" fill="#82A81E"/>
<path fill-rule="evenodd" clip-rule="evenodd" d="M29.8178 2.94827C19.3072 13.1563 14.8422 16.5521 0 30.9637L3.1922 30.3669L5.25532 34.7711L29.8178 23.4878L54.3803 34.7711L57.4596 30.4132L60 31.2518L29.8178 2.94827Z" fill="#82A81E"/>
<path fill-rule="evenodd" clip-rule="evenodd" d="M29.8144 2.94827L20.6997 11.8031V9.02472H17.1688V15.2349L1.21289 30.727L5.25189 34.7711L29.8144 11.0416L54.3769 34.7711L58.4159 30.727L29.8144 2.94827Z" fill="#E0E0E0"/>
<path fill-rule="evenodd" clip-rule="evenodd" d="M25.0364 20.2772C25.1596 17.9516 26.9917 16.0582 29.2858 15.8472V20.2772H25.0364ZM29.2858 25.5201H25.0312V21.1468H29.2858V25.5201ZM34.4077 21.1468V25.5201H30.1531V21.1468H34.4077ZM30.1531 15.8472C32.4472 16.0633 34.2794 17.9516 34.4026 20.2772H30.1531V15.8472Z" fill="#E0E0E0"/>
<path d="M49.7331 39.5716V38.7278H47.4031V37.8222H49.4252V36.9784H47.4031V36.1038H49.7023V35.2599H46.4691V39.5613H49.7331V39.5716ZM45.9456 36.1449V35.2702H42.389V36.1449H43.6926V39.5767H44.6369V36.1449H45.9456ZM40.5158 37.7708H39.3764L39.9461 36.3764L40.5158 37.7708ZM42.235 39.5716L40.3977 35.2394H39.5253L37.6879 39.5716H38.6528L39.0428 38.6043H40.8596L41.2497 39.5716H42.235ZM37.5288 36.1449V35.2702H33.9723V36.1449H35.281V39.5767H36.2253V36.1449H37.5288ZM33.6541 38.3007V38.2905C33.6541 38.1001 33.6233 37.9406 33.5668 37.8068C33.5052 37.673 33.418 37.5547 33.3 37.4518C33.1819 37.3489 33.0382 37.2666 32.8689 37.1945C32.6995 37.1225 32.5045 37.0608 32.2889 36.999C32.1042 36.9476 31.9502 36.9064 31.8322 36.8704C31.709 36.8344 31.6166 36.7932 31.5448 36.752C31.4729 36.7109 31.4267 36.6646 31.4011 36.6131C31.3754 36.5617 31.36 36.4999 31.36 36.433V36.4228C31.36 36.3147 31.4062 36.2272 31.4986 36.1552C31.5909 36.0832 31.7295 36.0472 31.9143 36.0472C32.099 36.0472 32.2838 36.0832 32.4685 36.1604C32.6533 36.2375 32.8381 36.3404 33.0331 36.4691L33.5258 35.7539C33.3051 35.579 33.0639 35.44 32.797 35.3474C32.5353 35.2548 32.2427 35.2085 31.9297 35.2085C31.709 35.2085 31.5088 35.2394 31.3241 35.3011C31.1393 35.3629 30.9802 35.4503 30.8519 35.5635C30.7185 35.6767 30.6158 35.8156 30.544 35.97C30.4721 36.1295 30.4362 36.3044 30.4362 36.4999V36.5102C30.4362 36.7212 30.4721 36.9013 30.5389 37.0453C30.6056 37.1894 30.7031 37.3077 30.8263 37.4055C30.9494 37.5032 31.0983 37.5804 31.2728 37.6473C31.4472 37.7142 31.6474 37.7708 31.863 37.8274C32.0426 37.8737 32.1914 37.9149 32.3043 37.956C32.4172 37.9972 32.5045 38.0383 32.5712 38.0795C32.6328 38.1207 32.679 38.167 32.6995 38.2133C32.72 38.2596 32.7354 38.3162 32.7354 38.3779V38.3882C32.7354 38.5168 32.679 38.6146 32.5712 38.6866C32.4634 38.7587 32.3094 38.7947 32.1144 38.7947C31.8681 38.7947 31.6423 38.7484 31.437 38.6558C31.2317 38.5631 31.0315 38.4345 30.8314 38.275L30.272 38.9439C30.5286 39.1754 30.816 39.3504 31.1291 39.4636C31.4421 39.5767 31.7654 39.6333 32.0939 39.6333C32.3248 39.6333 32.5404 39.6025 32.7303 39.5459C32.9202 39.4841 33.0844 39.4018 33.223 39.2886C33.3615 39.1754 33.4693 39.0365 33.5463 38.8719C33.6181 38.7021 33.6541 38.5117 33.6541 38.3007ZM29.9076 39.5716V38.7278H27.5776V37.8222H29.5997V36.9784H27.5776V36.1038H29.8768V35.2599H26.6436V39.5613H29.9076V39.5716ZM26.1303 39.5716V38.7175H23.9902V35.2702H23.0459V39.5716H26.1303ZM20.8699 37.7708H19.7305L20.3002 36.3764L20.8699 37.7708ZM22.584 39.5716L20.7467 35.2394H19.8742L18.0369 39.5716H19.0018L19.3918 38.6043H21.2086L21.5986 39.5716H22.584ZM17.7547 39.5716V38.7278H15.4247V37.8222H17.4467V36.9784H15.4247V36.1038H17.7239V35.2599H14.4906V39.5613H17.7547V39.5716ZM12.8842 36.752C12.8842 36.9373 12.8227 37.0865 12.6995 37.1945C12.5763 37.3077 12.3967 37.3592 12.1606 37.3592H11.206V36.1243H12.1452C12.3762 36.1243 12.5609 36.1758 12.6892 36.2787C12.8227 36.3816 12.8842 36.5359 12.8842 36.7418V36.752ZM13.9723 39.5716L12.9253 38.0332C13.1973 37.9303 13.4231 37.7708 13.5925 37.5495C13.7618 37.3283 13.8491 37.0453 13.8491 36.6955V36.6852C13.8491 36.2375 13.7054 35.8877 13.4231 35.6407C13.1409 35.3886 12.7405 35.2651 12.2325 35.2651H10.2617V39.5665H11.206V38.1875H11.9502L12.8689 39.5665H13.9723V39.5716Z" fill="black"/>
<path d="M45.715 41.9744V41.6862H44.9195V41.3775H45.6123V41.0894H44.9195V40.791H45.7047V40.5029H44.5962V41.9744H45.715ZM42.7742 41.0122C42.7742 41.074 42.7537 41.1254 42.7127 41.1614C42.6716 41.1975 42.61 41.218 42.5279 41.218H42.1994V40.7961H42.5228C42.6049 40.7961 42.6665 40.8116 42.7075 40.8476C42.7486 40.8836 42.7742 40.935 42.7742 41.0122ZM43.1438 41.9744L42.7845 41.4496C42.8769 41.4136 42.9539 41.357 43.0103 41.2849C43.0668 41.2077 43.0976 41.1151 43.0976 40.9916V40.9865C43.0976 40.8321 43.0514 40.7138 42.9539 40.6263C42.8564 40.5389 42.7229 40.4977 42.5433 40.4977H41.8761V41.9692H42.1994V41.4959H42.4509L42.764 41.9692H43.1438V41.9744ZM40.3775 41.9744V41.6862H39.582V41.3775H40.2749V41.0894H39.582V40.791H40.3673V40.5029H39.2587V41.9744H40.3775ZM37.6985 41.9744V40.5029H37.3752V41.0843H36.7799V40.5029H36.4566V41.9744H36.7799V41.3827H37.3752V41.9744H37.6985ZM33.6801 41.7686V41.1306H33.0437V41.4084H33.367V41.6194C33.2849 41.676 33.1822 41.7068 33.0642 41.7068C32.9975 41.7068 32.941 41.6965 32.8846 41.6708C32.8281 41.6451 32.7819 41.6142 32.746 41.5731C32.705 41.5319 32.6742 41.4804 32.6536 41.4238C32.6331 41.3672 32.6228 41.3055 32.6228 41.2386V41.2335C32.6228 41.1717 32.6331 41.11 32.6536 41.0534C32.6742 40.9968 32.705 40.9505 32.746 40.9093C32.7871 40.8682 32.8281 40.8321 32.8794 40.8116C32.9308 40.7858 32.9872 40.7756 33.0437 40.7756C33.0847 40.7756 33.1258 40.7807 33.1566 40.7858C33.1925 40.791 33.2233 40.8013 33.2541 40.8167C33.2849 40.827 33.3157 40.8424 33.3413 40.863C33.367 40.8836 33.3978 40.9042 33.4235 40.9248L33.6287 40.6778C33.5928 40.6469 33.5518 40.6161 33.5107 40.5903C33.4696 40.5646 33.4286 40.544 33.3824 40.5286C33.3362 40.5131 33.2849 40.4977 33.2336 40.4874C33.1771 40.4771 33.1207 40.472 33.0539 40.472C32.941 40.472 32.8384 40.4926 32.746 40.5337C32.6536 40.5749 32.5715 40.6263 32.5048 40.6984C32.4381 40.7653 32.3816 40.8476 32.3457 40.9402C32.3098 41.0328 32.2892 41.1306 32.2892 41.2335V41.2386C32.2892 41.3467 32.3098 41.4496 32.3457 41.5422C32.3816 41.6348 32.4381 41.7171 32.5048 41.784C32.5715 41.8509 32.6536 41.9023 32.746 41.9435C32.8384 41.9795 32.9462 42.0001 33.0591 42.0001C33.1925 42.0001 33.3105 41.9795 33.4183 41.9332C33.5158 41.8869 33.6031 41.8303 33.6801 41.7686ZM30.3236 41.3621H29.9336L30.1286 40.8836L30.3236 41.3621ZM30.9087 41.9744L30.2826 40.4926H29.9849L29.3537 41.9744H29.6821L29.8155 41.6451H30.4365L30.57 41.9744H30.9087ZM28.0244 40.8013V40.5029H26.8081V40.8013H27.2546V41.9744H27.5779V40.8013H28.0244ZM23.8263 41.0122C23.8263 41.074 23.8058 41.1254 23.7647 41.1614C23.7237 41.1975 23.6621 41.218 23.58 41.218H23.2515V40.7961H23.5749C23.657 40.7961 23.7186 40.8116 23.7596 40.8476C23.8007 40.8836 23.8263 40.935 23.8263 41.0122ZM24.1958 41.9744L23.8366 41.4496C23.929 41.4136 24.006 41.357 24.0624 41.2849C24.1189 41.2077 24.1497 41.1151 24.1497 40.9916V40.9865C24.1497 40.8321 24.1035 40.7138 24.006 40.6263C23.9084 40.5389 23.775 40.4977 23.5954 40.4977H22.9231V41.9692H23.2464V41.4959H23.4979L23.8109 41.9692H24.1958V41.9744ZM21.3886 41.3364V40.5029H21.0652V41.3467C21.0652 41.465 21.0396 41.5525 20.9831 41.6142C20.9267 41.6708 20.8497 41.7017 20.7522 41.7017C20.6547 41.7017 20.5777 41.6708 20.5212 41.6091C20.4648 41.5473 20.4391 41.4547 20.4391 41.3364V40.5029H20.1158V41.3467C20.1158 41.5628 20.1722 41.7274 20.2851 41.8355C20.398 41.9435 20.552 42.0001 20.7522 42.0001C20.8497 42.0001 20.9369 41.9847 21.019 41.9589C21.1012 41.9332 21.1679 41.8921 21.2243 41.8355C21.2808 41.7789 21.3218 41.712 21.3526 41.6296C21.3732 41.5422 21.3886 41.4444 21.3886 41.3364ZM18.299 41.2438C18.299 41.3055 18.2887 41.3672 18.2682 41.4238C18.2477 41.4804 18.2169 41.5267 18.1758 41.5679C18.1399 41.6091 18.0886 41.6451 18.0373 41.6657C17.9808 41.6914 17.9244 41.7017 17.8576 41.7017C17.7909 41.7017 17.7345 41.6914 17.678 41.6657C17.6216 41.6399 17.5754 41.6091 17.5394 41.5679C17.4984 41.5267 17.4676 41.4753 17.4471 41.4187C17.4265 41.3621 17.4163 41.3004 17.4163 41.2386V41.2335C17.4163 41.1717 17.4265 41.11 17.4471 41.0534C17.4676 40.9968 17.4984 40.9505 17.5394 40.9093C17.5805 40.8682 17.6216 40.8321 17.678 40.8116C17.7293 40.7858 17.7909 40.7756 17.8576 40.7756C17.9244 40.7756 17.9808 40.7858 18.0373 40.8116C18.0937 40.8373 18.1399 40.8682 18.181 40.9093C18.222 40.9505 18.2528 41.0019 18.2733 41.0585C18.2887 41.1151 18.299 41.1769 18.299 41.2438ZM18.6377 41.2386C18.6377 41.1306 18.6172 41.0328 18.5813 40.9402C18.5402 40.8476 18.4889 40.7704 18.417 40.6984C18.3503 40.6315 18.2631 40.5749 18.1707 40.5389C18.0732 40.4977 17.9705 40.4771 17.8576 40.4771C17.7447 40.4771 17.6421 40.4977 17.5446 40.5389C17.4471 40.58 17.3649 40.6315 17.2982 40.7035C17.2315 40.7704 17.1751 40.8527 17.134 40.9453C17.0929 41.038 17.0775 41.1357 17.0775 41.2386V41.2438C17.0775 41.3467 17.0981 41.4496 17.134 41.537C17.1751 41.6296 17.2264 41.7068 17.2931 41.7789C17.3598 41.8457 17.4471 41.9023 17.5394 41.9384C17.6369 41.9795 17.7396 42.0001 17.8525 42.0001C17.9654 42.0001 18.0681 41.9795 18.1656 41.9384C18.2631 41.8972 18.3452 41.8457 18.4119 41.7737C18.4786 41.7017 18.5351 41.6245 18.5761 41.5319C18.6172 41.4444 18.6377 41.3467 18.6377 41.2386ZM15.7329 40.5029H15.3634L15.0042 41.0946L14.6552 40.5029H14.2754L14.8399 41.393V41.9744H15.1633V41.3878L15.7329 40.5029Z" fill="#82A81E"/>
</g>
<defs>
<clipPath id="clip0_513_226">
<rect width="60" height="42" fill="white"/>
</clipPath>
</defs>
</svg>
