<svg width="60" height="40" viewBox="0 0 60 40" fill="none" xmlns="http://www.w3.org/2000/svg">
<g clip-path="url(#clip0_513_337)">
<path fill-rule="evenodd" clip-rule="evenodd" d="M4.59013 6.80765L4.32617 15.7936L7.64036 9.5776L4.59013 6.80765Z" fill="#CFB073"/>
<path fill-rule="evenodd" clip-rule="evenodd" d="M13.9313 0.00012207L0 26.3945L24.2112 26.432L13.9313 0.00012207Z" fill="#CFB073"/>
<path fill-rule="evenodd" clip-rule="evenodd" d="M24.6644 24.0752L29.995 13.7748L15.873 1.3898L24.6644 24.0752Z" fill="#CFB073"/>
<path fill-rule="evenodd" clip-rule="evenodd" d="M2.72656 40.0002V27.6527H20.346L2.72656 40.0002Z" fill="#2C3836"/>
<path fill-rule="evenodd" clip-rule="evenodd" d="M21.484 39.9063L21.4766 27.6527L4.0918 27.6903L21.484 39.9063Z" fill="#2C3836"/>
<path fill-rule="evenodd" clip-rule="evenodd" d="M55.4023 6.80765L55.6736 15.7936L52.3594 9.5776L55.4023 6.80765Z" fill="#CFB073"/>
<path fill-rule="evenodd" clip-rule="evenodd" d="M46.0689 0.00012207L60.0002 26.3945L35.7891 26.432L46.0689 0.00012207Z" fill="#CFB073"/>
<path fill-rule="evenodd" clip-rule="evenodd" d="M35.3267 24.0752L29.9961 13.7748L44.1254 1.3898L35.3267 24.0752Z" fill="#CFB073"/>
<path fill-rule="evenodd" clip-rule="evenodd" d="M57.2718 40.0002V27.6527H39.6523L57.2718 40.0002Z" fill="#2C3836"/>
<path fill-rule="evenodd" clip-rule="evenodd" d="M38.5156 39.9063V27.6527L55.9078 27.6903L38.5156 39.9063Z" fill="#2C3836"/>
</g>
<defs>
<clipPath id="clip0_513_337">
<rect width="60" height="40" fill="white"/>
</clipPath>
</defs>
</svg>
